<?xml version="1.0" standalone="no"?>
<!DOCTYPE svg PUBLIC "-//W3C//DTD SVG 20010904//EN"
 "http://www.w3.org/TR/2001/REC-SVG-20010904/DTD/svg10.dtd">
<svg version="1.0" xmlns="http://www.w3.org/2000/svg"
 width="610.000000pt" height="187.000000pt" viewBox="0 0 610.000000 187.000000"
 preserveAspectRatio="xMidYMid meet">

<g transform="translate(0.000000,187.000000) scale(0.100000,-0.100000)"
fill="#000000" stroke="none">
<path d="M675 1709 c-86 -10 -214 -54 -291 -100 -120 -72 -264 -239 -264 -308
l0 -34 26 49 c96 181 285 319 493 358 115 22 183 20 295 -8 139 -36 224 -84
327 -186 128 -127 188 -248 207 -420 38 -356 -182 -675 -532 -766 -94 -25
-254 -23 -349 4 -194 55 -356 183 -440 347 l-26 50 -1 -33 c0 -66 129 -224
247 -299 372 -237 862 -103 1057 290 62 125 79 210 73 362 -6 132 -29 218 -88
324 -146 261 -434 406 -734 370z"/>
<path d="M1740 980 c0 -651 2 -740 15 -740 13 0 15 89 15 740 0 651 -2 740
-15 740 -13 0 -15 -89 -15 -740z"/>
<path d="M600 1632 c-36 -10 -87 -28 -114 -40 -56 -25 -162 -99 -191 -133 -12
-14 -5 -11 18 9 149 127 407 141 582 31 104 -65 179 -156 217 -264 57 -159 45
-282 -43 -437 -59 -106 5 -226 126 -236 71 -6 116 17 154 78 107 174 120 427
32 616 -81 173 -208 290 -386 357 -70 26 -95 31 -205 34 -98 2 -139 -1 -190
-15z"/>
<path d="M2165 1510 l80 -80 163 0 164 0 -6 -25 -6 -25 113 0 113 0 19 76 c17
68 17 79 4 103 l-15 26 -354 3 -355 2 80 -80z"/>
<path d="M2924 1568 c-16 -12 -30 -22 -32 -23 -1 -1 -29 -100 -61 -219 l-58
-218 24 -29 25 -29 218 0 218 0 34 27 c18 15 34 28 36 29 2 1 27 93 58 205 30
112 56 209 59 216 2 6 -5 23 -16 37 l-20 26 -228 0 c-219 0 -229 -1 -257 -22z
m266 -144 c0 -3 -12 -50 -27 -105 l-26 -99 -54 0 c-29 0 -53 3 -53 6 0 3 12
50 27 105 l26 99 54 0 c29 0 53 -3 53 -6z"/>
<path d="M3544 1568 c-16 -12 -30 -23 -32 -24 -2 -1 -28 -94 -58 -206 -30
-111 -56 -209 -59 -215 -2 -7 7 -26 21 -43 l26 -30 215 0 216 0 36 27 c20 14
37 28 39 29 4 2 42 145 42 157 0 4 -49 7 -110 7 -109 0 -110 0 -116 -25 -6
-23 -11 -25 -60 -25 -30 0 -54 3 -54 6 0 3 12 50 27 105 l26 99 55 0 c53 0 54
-1 48 -25 l-6 -25 113 0 113 0 17 68 c22 85 21 105 -1 125 -16 15 -48 17 -244
17 -216 0 -226 -1 -254 -22z"/>
<path d="M4076 1333 c-38 -142 -69 -262 -70 -268 -1 -6 42 -10 109 -10 l110 0
29 108 c28 104 30 107 57 107 20 0 34 -8 46 -26 15 -23 15 -32 3 -87 -7 -34
-15 -72 -18 -84 -4 -23 -3 -23 106 -23 l110 0 21 83 c12 45 26 94 31 109 7 21
4 33 -12 54 l-21 26 36 32 c31 27 39 44 61 129 14 55 26 101 26 103 0 2 -50 4
-110 4 -80 0 -112 -4 -115 -12 -2 -7 -13 -44 -24 -83 -17 -57 -27 -74 -54 -92
-18 -13 -45 -23 -59 -23 l-26 0 23 85 c13 47 27 94 30 105 6 19 2 20 -107 20
l-113 0 -69 -257z"/>
<path d="M4694 1324 c-47 -176 -67 -267 -60 -270 6 -2 119 -3 251 -2 l240 3
17 60 c31 111 38 104 -116 107 l-134 3 49 180 c27 99 48 181 49 183 0 1 -51 2
-112 2 l-113 0 -71 -266z"/>
<path d="M5350 1565 c-31 -23 -38 -37 -61 -128 -15 -56 -41 -152 -57 -214
l-30 -111 21 -31 22 -31 250 3 250 2 22 83 21 82 -164 0 c-93 0 -164 4 -164 9
0 38 9 41 150 41 l138 0 11 44 c6 25 11 50 11 55 0 7 -47 11 -136 11 -120 0
-135 2 -130 16 3 9 6 20 6 25 0 5 73 9 168 9 l168 0 21 80 21 80 -252 0 -252
0 -34 -25z"/>
<path d="M540 1543 c-47 -8 -145 -43 -182 -66 -54 -32 -135 -114 -165 -165
-27 -45 -77 -172 -68 -172 3 0 16 23 30 50 35 69 84 121 147 155 68 37 193 47
280 21 105 -30 204 -152 228 -277 14 -75 50 -125 99 -140 77 -23 143 7 176 81
16 36 17 50 8 105 -43 253 -308 449 -553 408z"/>
<path d="M2192 1253 c-37 -147 -38 -150 -13 -180 19 -23 23 -23 239 -23 l220
0 34 27 c18 15 34 28 36 29 4 2 42 142 42 154 0 6 -42 10 -110 10 -109 0 -110
0 -116 -25 -6 -23 -11 -25 -60 -25 -30 0 -54 3 -54 8 0 4 6 27 14 52 7 25 16
57 20 73 l6 27 -112 0 -113 0 -33 -127z"/>
<path d="M380 1336 c-87 -23 -182 -104 -215 -183 -18 -41 -36 -133 -26 -133 3
1 15 15 26 32 60 93 164 100 267 17 38 -31 113 -36 158 -11 66 36 98 128 66
190 -46 87 -153 122 -276 88z"/>
<path d="M601 996 c-9 -11 -9 -20 -2 -35 6 -11 11 -37 11 -58 0 -33 -7 -46
-50 -88 l-50 -49 -40 39 c-37 36 -40 44 -38 85 3 40 1 45 -20 48 -27 4 -40
-23 -24 -49 7 -10 12 -27 12 -36 0 -10 21 -38 46 -64 44 -44 45 -48 42 -100
l-3 -54 -18 38 c-14 29 -24 37 -40 35 -33 -5 -36 -54 -5 -63 13 -4 60 -44 106
-88 67 -67 82 -87 82 -112 0 -17 -5 -36 -10 -41 -24 -24 20 -65 46 -43 16 13
19 49 4 49 -5 0 -10 15 -10 33 0 25 9 42 40 72 38 37 40 42 40 100 1 48 5 65
24 87 13 14 32 28 42 30 22 4 32 47 13 59 -16 9 -49 -7 -49 -25 0 -7 -10 -22
-23 -34 l-24 -22 -18 20 c-18 20 -18 21 13 53 25 26 32 42 32 72 0 22 4 47 9
54 12 18 -4 51 -23 51 -8 0 -19 -7 -27 -16 -10 -12 -10 -20 -1 -35 23 -36 14
-71 -30 -116 l-41 -42 36 -34 c35 -31 37 -37 37 -92 l0 -59 -34 33 c-18 18
-33 39 -32 48 0 8 -7 20 -16 26 -14 9 -21 8 -33 -4 -17 -17 -11 -49 9 -49 7 0
29 -17 49 -38 l38 -38 -21 -19 c-20 -18 -21 -18 -68 26 -63 60 -62 57 -62 122
0 58 1 59 60 121 55 58 60 66 60 107 0 25 5 50 11 56 16 16 1 53 -20 53 -10 0
-24 -6 -30 -14z"/>
<path d="M2099 893 c5 -10 41 -49 78 -86 l69 -68 110 3 109 3 22 83 21 82
-209 0 c-197 0 -209 -1 -200 -17z"/>
<path d="M2615 898 c-3 -7 -21 -73 -40 -147 -22 -84 -42 -139 -53 -147 -9 -6
-34 -26 -56 -43 -59 -47 -64 -44 -42 29 7 25 16 57 20 73 l6 27 -113 0 -112 0
-35 -134 c-33 -129 -33 -134 -17 -160 l17 -26 154 0 c140 0 154 2 171 20 23
25 41 25 57 0 12 -18 24 -20 133 -20 l120 0 127 98 c114 86 129 102 142 142
19 58 76 276 76 290 0 7 -36 10 -112 8 l-111 -3 -37 -143 c-21 -79 -41 -147
-46 -151 -55 -45 -104 -81 -112 -81 -5 0 13 82 39 183 27 100 49 185 49 190 0
13 -220 8 -225 -5z"/>
<path d="M3253 872 c-29 -25 -37 -46 -92 -252 -34 -124 -61 -231 -61 -238 0
-9 31 -12 110 -12 l109 0 11 43 c33 125 27 117 87 117 29 0 53 -1 53 -3 0 -1
-9 -34 -20 -72 -11 -38 -20 -73 -20 -78 0 -4 50 -6 112 -5 l112 3 63 238 c63
233 63 238 46 262 l-18 24 -230 0 -230 0 -32 -27z m267 -151 c0 -10 -5 -32
-11 -50 -10 -30 -13 -31 -64 -31 l-53 0 9 38 c6 20 12 43 14 50 3 7 23 12 55
12 42 0 50 -3 50 -19z"/>
<path d="M3857 893 c-3 -5 -33 -112 -67 -240 -80 -301 -88 -283 122 -283 l149
0 122 93 c67 50 127 97 134 102 10 8 93 298 93 326 0 5 -48 9 -109 9 l-110 0
-15 -52 c-8 -29 -25 -93 -38 -142 -23 -87 -24 -89 -81 -133 -31 -24 -61 -43
-66 -41 -4 2 11 75 35 163 24 88 46 170 49 183 5 22 4 22 -104 22 -60 0 -112
-3 -114 -7z"/>
<path d="M4493 872 c-29 -25 -37 -45 -88 -239 -55 -205 -56 -212 -40 -237 l18
-26 255 2 255 3 19 65 c10 36 18 71 18 78 0 9 -39 12 -164 12 l-163 0 5 25 4
24 141 3 140 3 13 45 c8 25 14 48 14 53 0 4 -61 7 -136 7 -135 0 -135 0 -132
23 3 22 6 22 172 27 l170 5 18 70 c9 39 18 73 18 78 0 4 -114 7 -252 7 l-253
-1 -32 -27z"/>
<path d="M816 704 c-9 -8 -16 -22 -16 -30 0 -8 -7 -17 -15 -20 -11 -5 -15 -22
-15 -69 0 -65 -10 -83 -63 -109 -31 -16 -30 -60 1 -64 18 -3 26 4 37 32 8 19
24 41 34 48 16 11 21 28 23 78 3 60 5 66 31 78 34 16 44 37 27 57 -16 19 -25
19 -44 -1z"/>
<path d="M404 566 c-8 -22 2 -45 23 -53 27 -11 61 -46 65 -68 2 -14 11 -20 28
-20 35 0 41 41 8 54 -29 11 -65 50 -70 76 -4 25 -46 33 -54 11z"/>
</g>
</svg>
