<?xml version="1.0" standalone="no"?>
<!DOCTYPE svg PUBLIC "-//W3C//DTD SVG 20010904//EN"
 "http://www.w3.org/TR/2001/REC-SVG-20010904/DTD/svg10.dtd">
<svg version="1.0" xmlns="http://www.w3.org/2000/svg"
 width="645.000000pt" height="170.000000pt" viewBox="0 0 645.000000 170.000000"
 preserveAspectRatio="xMidYMid meet">

<g transform="translate(0.000000,170.000000) scale(0.100000,-0.100000)"
fill="#000000" stroke="none">
<path d="M0 850 l0 -850 3225 0 3225 0 0 850 0 850 -3225 0 -3225 0 0 -850z
m2045 670 c3 -5 -1 -10 -10 -10 -9 0 -13 5 -10 10 3 6 8 10 10 10 2 0 7 -4 10
-10z m610 -11 c-5 -15 -3 -17 11 -12 14 5 16 3 11 -11 -5 -11 -3 -15 5 -10 8
5 9 2 3 -12 -4 -10 -7 -29 -6 -42 0 -13 -3 -21 -8 -18 -5 4 -7 -3 -4 -14 3
-12 0 -20 -6 -20 -7 0 -10 -4 -7 -9 4 -5 3 -16 0 -25 -9 -23 -179 -24 -188 0
-9 25 -7 41 4 24 6 -9 10 -10 10 -3 0 23 -20 24 -29 1 -9 -22 -10 -22 -10 -2
-1 26 -32 30 -161 21 l-35 -2 -3 48 -3 47 -67 2 c-37 1 1 5 83 8 l150 6 -185
4 -185 4 240 6 c227 5 232 6 95 10 -145 4 -145 4 -55 10 50 4 148 7 218 7 121
1 127 0 122 -18z m664 -10 c12 -16 20 -33 17 -38 -3 -4 -17 -52 -31 -107 -14
-54 -28 -106 -31 -114 -3 -8 -5 -16 -6 -17 0 -2 -11 -42 -24 -90 -16 -60 -31
-94 -46 -106 -13 -10 -31 -24 -40 -32 -13 -11 -66 -14 -240 -15 l-223 -1 -19
31 c-17 30 -17 32 1 46 10 9 13 13 7 10 -7 -3 -11 4 -11 19 0 14 3 25 7 25 5
0 6 10 2 22 -4 16 -2 19 8 13 9 -5 11 -4 6 3 -8 14 3 84 13 78 3 -2 7 10 8 28
1 17 13 72 28 121 21 76 31 95 63 123 l37 32 226 -1 226 0 22 -30z m639 2 l21
-29 -21 -76 -21 -76 -94 0 c-67 0 -93 3 -94 13 0 10 -2 10 -6 0 -9 -23 -25
-13 -21 12 5 25 4 25 -57 25 l-62 0 -18 -72 c-9 -40 -20 -77 -24 -83 -4 -5 -8
-25 -10 -43 l-3 -33 64 3 c41 2 63 7 64 16 1 6 2 19 3 27 1 12 20 15 111 15
81 0 110 -3 110 -12 0 -7 -9 -44 -21 -83 -17 -56 -28 -76 -57 -97 l-35 -28
-226 0 -226 1 -18 24 c-21 29 -19 39 29 225 56 217 62 232 102 268 l37 32 226
-1 226 0 21 -28z m332 22 c0 -5 -11 -48 -25 -98 -14 -49 -25 -96 -25 -102 0
-27 64 -14 100 20 29 26 39 46 54 110 l18 77 113 0 114 0 -26 -92 c-30 -111
-37 -125 -76 -159 l-30 -25 21 -30 22 -29 -30 -105 c-16 -58 -30 -106 -30
-107 0 -2 -49 -3 -110 -3 -60 0 -110 3 -110 6 0 4 10 42 21 84 21 76 21 78 3
104 -14 19 -28 25 -55 26 l-36 0 -29 -110 -29 -110 -112 0 -112 0 14 48 c13
43 38 137 97 359 12 45 26 79 30 77 5 -3 6 6 2 20 -3 13 -3 30 1 35 7 12 225
15 225 4z m640 -3 c0 -9 -43 -176 -78 -302 -11 -37 -17 -70 -14 -73 3 -3 67
-5 143 -5 l137 0 -21 -80 -21 -80 -253 0 c-168 0 -253 3 -253 10 0 6 32 128
70 271 39 143 70 262 70 264 0 3 50 5 110 5 65 0 110 -4 110 -10z m930 -2 c-1
-7 -9 -42 -19 -78 l-18 -65 -172 -3 -172 -2 -9 -26 c-6 -14 -10 -27 -10 -30 0
-2 63 -4 140 -4 156 0 150 3 129 -72 l-10 -38 -144 0 c-80 0 -145 -3 -145 -7
0 -5 -3 -18 -6 -30 l-6 -23 172 0 c158 0 171 -1 166 -17 -2 -10 -12 -46 -22
-80 l-17 -63 -258 0 -258 0 -19 28 -20 27 58 219 c32 120 62 222 67 226 62 52
47 50 319 50 197 0 254 -3 254 -12z m-3833 -33 c24 -25 7 -30 -18 -6 -13 12
-17 21 -10 21 7 0 19 -7 28 -15z m44 -42 c13 -16 12 -17 -3 -4 -10 7 -18 15
-18 17 0 8 8 3 21 -13z m55 3 c20 -21 17 -35 -6 -29 -11 3 -20 14 -20 24 0 23
7 24 26 5z m-55 -33 c13 -16 12 -17 -3 -4 -10 7 -18 15 -18 17 0 8 8 3 21 -13z
m386 -89 c-3 -3 -12 -4 -19 -1 -8 3 -5 6 6 6 11 1 17 -2 13 -5z m-164 -28 c-4
-6 -10 -29 -14 -51 l-6 -40 -2 35 -2 35 -14 -30 -15 -30 7 35 c3 19 6 40 6 45
0 6 11 11 24 11 15 1 20 -2 16 -10z m-75 -73 c-10 -2 -26 -2 -35 0 -10 3 -2 5
17 5 19 0 27 -2 18 -5z m42 -23 c0 -5 -5 -10 -11 -10 -5 0 -7 5 -4 10 3 6 8
10 11 10 2 0 4 -4 4 -10z m305 -17 c0 -6 3 -15 8 -19 4 -4 7 3 7 16 0 15 4 20
9 15 12 -14 25 -59 15 -52 -5 3 -10 -10 -11 -29 -2 -48 -23 -85 -60 -104 -18
-9 -30 -19 -28 -22 8 -7 -85 -9 -97 -2 -5 4 -44 7 -86 8 l-77 1 -3 33 c-3 27
0 32 17 32 27 0 27 20 1 27 -21 6 -28 47 -10 58 6 3 10 2 10 -4 0 -6 24 -7 63
-4 34 3 103 6 154 7 115 1 111 16 -5 17 -48 0 -82 3 -75 5 7 3 9 12 6 20 -5
13 8 14 78 12 56 -2 84 -7 84 -15z m-492 -18 c2 -14 2 -23 -1 -20 -3 2 -12 -1
-21 -7 -13 -10 -14 -10 -3 2 6 8 12 22 12 32 0 26 7 22 13 -7z m-5 -76 c-3 -8
-7 -3 -11 10 -4 17 -3 21 5 13 5 -5 8 -16 6 -23z m-9 -29 c6 -19 8 -30 3 -25
-5 6 -15 26 -21 45 -6 19 -8 30 -3 25 5 -6 15 -26 21 -45z m208 14 c-3 -3 -12
-4 -19 -1 -8 3 -5 6 6 6 11 1 17 -2 13 -5z m-220 -59 l14 -30 -21 24 c-11 13
-20 33 -19 45 0 14 2 16 6 6 3 -8 12 -28 20 -45z m-44 -218 c4 3 7 4 7 0 0
-17 -20 -14 -36 6 -19 22 -19 22 2 4 11 -9 24 -14 27 -10z m328 15 c1 7 5 -5
10 -26 10 -40 4 -60 -10 -37 -6 10 -10 9 -15 -4 -3 -10 -1 -24 5 -31 10 -13 8
-18 -7 -11 -3 1 -10 -6 -15 -15 -6 -10 -21 -18 -33 -18 -34 0 -42 53 -12 75
13 9 15 14 6 12 -8 -1 -15 7 -16 21 -1 12 1 20 4 18 2 -3 14 1 25 9 14 10 25
11 39 4 13 -7 18 -6 19 3z m189 -9 c1 -17 1 -17 11 0 8 14 24 17 94 16 l83 -1
-13 -38 c-7 -21 -10 -42 -7 -46 4 -4 1 -3 -7 1 -11 6 -13 4 -8 -9 8 -21 -2
-68 -13 -61 -4 2 -5 -8 -3 -23 3 -24 2 -25 -7 -7 -9 18 -10 17 -7 -7 2 -15 1
-25 -3 -23 -4 3 -10 -5 -13 -17 -4 -12 -2 -25 3 -28 11 -7 -23 -121 -36 -120
-5 0 -10 -8 -12 -20 -2 -12 -11 -20 -22 -20 -10 0 -20 -7 -24 -15 -8 -21 -43
-19 -51 3 -3 11 -17 24 -30 30 -14 6 -25 15 -25 20 0 17 -30 8 -36 -10 -3 -10
-11 -18 -18 -18 -8 0 -18 -6 -24 -13 -8 -9 -3 -18 19 -32 16 -11 29 -24 29
-29 0 -19 -44 -56 -64 -55 -17 0 -16 2 7 11 15 5 27 14 27 19 0 12 -17 11 -25
-1 -8 -13 -285 -12 -285 0 0 12 28 20 75 20 65 0 105 11 105 28 0 11 7 13 30
9 17 -4 30 -2 30 3 0 4 8 11 18 14 9 3 -4 3 -29 0 l-46 -5 0 96 c0 52 4 95 9
95 4 0 8 7 8 15 0 24 20 17 21 -7 1 -22 1 -22 9 2 6 17 8 19 9 7 1 -10 -5 -32
-12 -50 -8 -18 -12 -39 -10 -47 3 -10 -1 -8 -11 4 -18 22 -22 5 -6 -25 8 -14
7 -19 -1 -19 -8 0 -8 -4 1 -15 7 -8 16 -12 21 -9 5 3 19 -1 31 -7 20 -11 22
-11 10 3 -11 14 -8 20 21 42 19 14 43 26 54 26 12 0 24 7 27 16 5 14 4 15 -9
4 -9 -7 -18 -10 -22 -6 -3 3 -1 6 5 6 6 0 14 17 18 38 4 20 9 31 11 25 7 -21
25 -14 18 7 -3 10 -3 36 1 57 6 32 8 35 16 18 5 -13 6 -4 3 25 -3 31 -2 39 4
25 7 -15 9 -7 9 32 0 47 14 82 35 83 4 0 7 -8 7 -17z m522 -8 c-2 -11 -11 -25
-20 -32 -9 -8 -13 -22 -9 -40 7 -37 -23 -160 -34 -141 -7 10 -9 11 -9 0 0 -7
-4 -11 -9 -8 -4 3 -6 -7 -3 -22 5 -24 6 -24 13 -7 6 16 8 17 8 3 1 -9 -6 -24
-15 -32 -8 -9 -13 -20 -10 -25 3 -5 -13 -24 -37 -43 -50 -40 -101 -74 -104
-67 0 2 -11 -8 -23 -23 -12 -16 -25 -28 -30 -28 -4 0 -22 -13 -39 -29 -25 -24
-40 -29 -81 -29 -29 -1 -55 5 -63 13 -8 7 -32 15 -53 18 -32 3 -30 4 16 5 38
2 51 5 40 12 -12 7 -11 10 5 16 19 8 55 40 55 50 0 3 7 13 16 21 11 12 12 18
4 23 -9 5 -9 9 -1 14 6 4 11 3 11 -2 0 -6 7 -13 16 -16 8 -3 13 -2 10 3 -8 12
21 34 33 26 6 -3 18 3 28 14 12 15 20 18 30 9 17 -14 17 -28 -1 -28 -7 0 -16
-9 -19 -20 -3 -13 0 -20 10 -20 9 0 13 -6 9 -15 -7 -20 4 -19 20 3 13 16 14
16 7 -3 -6 -18 -5 -18 10 -6 9 7 14 18 10 24 -4 6 0 8 11 4 15 -6 15 -3 -3 21
-11 15 -33 42 -50 60 -35 37 -38 54 -16 72 9 7 13 21 10 31 -3 9 3 35 15 56
17 32 26 32 21 1 0 -5 3 -8 7 -8 8 0 36 -50 33 -58 -1 -1 4 -8 11 -15 9 -10
18 -11 35 -3 24 11 30 30 13 41 -5 3 -10 16 -10 28 0 18 -2 19 -10 7 -8 -13
-10 -12 -10 3 0 9 -4 17 -10 17 -5 0 -10 12 -10 27 0 17 -3 24 -10 17 -11 -11
-2 -54 11 -54 5 0 9 -5 9 -10 0 -6 -8 -5 -20 2 -16 10 -20 22 -18 63 1 27 -1
62 -6 77 l-8 27 109 -2 c104 -2 110 -3 105 -22z m621 -7 l21 -28 -32 -117
c-18 -65 -47 -174 -66 -243 l-34 -125 -112 -3 c-101 -2 -112 -1 -106 14 3 9
11 37 18 63 6 25 15 52 21 59 18 22 -7 33 -68 30 l-57 -3 -19 -73 c-10 -40
-21 -77 -24 -82 -7 -12 -202 -13 -209 -2 -8 14 19 104 28 95 5 -5 6 0 3 10 -6
16 5 71 33 157 6 19 13 46 16 60 3 13 10 27 15 31 5 3 7 14 3 25 -5 15 -4 16
5 4 9 -13 12 -13 23 -1 10 10 10 12 1 7 -14 -8 -16 1 -13 49 1 29 33 68 75 93
14 8 86 11 239 9 l219 -2 20 -27z m327 20 c0 -7 -7 -38 -16 -68 -8 -30 -24
-89 -35 -130 -11 -41 -22 -82 -26 -90 -3 -8 -7 -22 -8 -30 -1 -8 -5 -25 -9
-37 -12 -36 17 -29 82 22 l57 45 41 147 40 148 112 3 c62 1 112 1 112 0 0 -16
-91 -333 -97 -338 -4 -4 -40 -32 -78 -61 -39 -30 -77 -60 -85 -67 -8 -7 -36
-28 -62 -47 l-47 -35 -145 0 -145 0 -20 28 -20 28 24 90 c13 49 43 160 66 247
l42 157 108 0 c81 0 109 -3 109 -12z m986 -5 c-3 -10 -10 -38 -16 -63 -6 -25
-13 -53 -16 -62 -5 -16 -22 -18 -174 -18 -157 0 -170 -1 -180 -19 -20 -39 -14
-41 131 -41 l142 0 -6 -27 c-3 -16 -10 -40 -16 -55 l-11 -28 -140 0 c-137 0
-141 -1 -149 -22 -5 -13 -7 -26 -4 -30 2 -5 80 -8 172 -8 l168 0 -21 -80 -20
-80 -257 0 -258 0 -20 28 -20 28 25 95 c14 52 40 149 58 216 18 68 34 124 37
126 2 2 19 15 37 30 l34 27 254 0 c238 0 255 -1 250 -17z m-2938 -32 c-7 -11
-16 -18 -20 -15 -4 3 -2 11 5 19 18 21 29 18 15 -4z m793 -43 c-8 -20 -9 -18
-8 15 1 24 4 32 9 23 4 -8 4 -25 -1 -38z m-754 28 c-7 -18 22 -29 49 -19 17 6
18 5 5 -11 -10 -12 -22 -15 -39 -11 -20 5 -23 3 -18 -10 3 -10 2 -14 -5 -10
-5 4 -7 15 -4 25 3 10 1 21 -5 25 -12 7 -4 25 12 25 5 0 8 -7 5 -14z m73 -77
c0 -11 -4 -17 -10 -14 -5 3 -10 13 -10 21 0 8 5 14 10 14 6 0 10 -9 10 -21z
m-32 -7 c6 -18 -15 -14 -22 4 -4 10 -1 14 6 12 6 -2 14 -10 16 -16z m642 -162
c0 -5 -5 -10 -11 -10 -5 0 -7 5 -4 10 3 6 8 10 11 10 2 0 4 -4 4 -10z m-684
-53 c-3 -23 -8 -53 -12 -66 -7 -23 -8 -24 -15 -5 -11 28 -11 56 1 49 5 -3 7
-13 4 -23 -4 -12 -3 -13 3 -4 5 7 9 33 8 57 -1 24 2 42 6 39 5 -3 7 -24 5 -47z
m643 20 c-2 -1 -13 -9 -24 -17 -19 -14 -19 -14 -6 3 7 9 18 17 24 17 6 0 8 -1
6 -3z m-657 -131 c7 4 8 2 4 -4 -11 -18 -26 -14 -25 6 0 10 3 12 6 4 2 -6 10
-9 15 -6z m68 -58 l75 -2 -74 -3 c-77 -4 -111 10 -111 46 0 10 7 6 18 -11 16
-26 22 -28 92 -30z m331 9 c-10 -9 -11 -8 -5 6 3 10 9 15 12 12 3 -3 0 -11 -7
-18z"/>
<path d="M2651 1434 c0 -11 3 -14 6 -6 3 7 2 16 -1 19 -3 4 -6 -2 -5 -13z"/>
<path d="M2830 1490 c-9 -6 -10 -10 -3 -10 6 0 15 5 18 10 8 12 4 12 -15 0z"/>
<path d="M3014 1372 c-47 -3 -51 -5 -61 -35 -6 -18 -14 -51 -18 -75 -4 -23
-10 -40 -13 -38 -4 2 -8 -8 -8 -22 -1 -15 -3 -34 -5 -42 -3 -12 8 -15 61 -15
36 0 65 4 66 10 1 27 28 127 35 131 5 2 6 11 2 19 -3 8 -1 15 5 15 10 0 4 49
-7 53 -3 1 -29 1 -57 -1z"/>
<path d="M2741 1314 c0 -11 3 -14 6 -6 3 7 2 16 -1 19 -3 4 -6 -2 -5 -13z"/>
<path d="M2505 1040 c10 -11 20 -20 23 -20 3 0 -3 9 -13 20 -10 11 -20 20 -23
20 -3 0 3 -9 13 -20z"/>
<path d="M2530 1055 c0 -7 30 -13 34 -7 3 4 -4 9 -15 9 -10 1 -19 0 -19 -2z"/>
<path d="M2536 761 c-4 -7 -5 -15 -2 -18 9 -9 19 4 14 18 -4 11 -6 11 -12 0z"/>
<path d="M2452 539 c-6 -23 -7 -38 -2 -33 9 10 24 74 17 74 -3 0 -9 -19 -15
-41z"/>
<path d="M2262 540 c0 -14 2 -19 5 -12 2 6 2 18 0 25 -3 6 -5 1 -5 -13z"/>
<path d="M2571 524 c0 -11 3 -14 6 -6 3 7 2 16 -1 19 -3 4 -6 -2 -5 -13z"/>
<path d="M2602 510 c0 -14 2 -19 5 -12 2 6 2 18 0 25 -3 6 -5 1 -5 -13z"/>
<path d="M2345 455 c-16 -14 -25 -25 -19 -25 6 0 17 7 24 15 7 8 20 15 29 15
14 0 14 -2 1 -10 -8 -5 -11 -12 -7 -17 9 -8 28 17 24 31 -6 18 -22 15 -52 -9z"/>
<path d="M2562 440 c0 -14 2 -19 5 -12 2 6 2 18 0 25 -3 6 -5 1 -5 -13z"/>
<path d="M2330 330 c-8 -5 -12 -11 -10 -14 3 -2 14 2 24 10 22 15 10 19 -14 4z"/>
<path d="M2118 313 c23 -2 59 -2 80 0 20 2 1 4 -43 4 -44 0 -61 -2 -37 -4z"/>
<path d="M2268 313 c7 -3 16 -2 19 1 4 3 -2 6 -13 5 -11 0 -14 -3 -6 -6z"/>
<path d="M2668 293 c7 -3 16 -2 19 1 4 3 -2 6 -13 5 -11 0 -14 -3 -6 -6z"/>
<path d="M3305 648 c-8 -24 -25 -93 -25 -101 0 -4 28 -7 62 -5 l62 3 13 50 c7
28 13 53 13 58 0 13 -120 8 -125 -5z"/>
<path d="M3101 604 c0 -11 3 -14 6 -6 3 7 2 16 -1 19 -3 4 -6 -2 -5 -13z"/>
</g>
</svg>
